<svg xmlns="http://www.w3.org/2000/svg" width="64" height="64" viewBox="0 0 24 24">
  <circle cx="12" cy="12" r="12" fill="#ffffff"/>
  <path fill="#F44336" d="M12 0C5.37 0 0 5.37 0 12c0 5.3 3.44 9.8 8.2 11.38.6.11.82-.26.82-.58v-2.16c-3.34.73-4.04-1.61-4.04-1.61-.55-1.39-1.34-1.76-1.34-1.76-1.09-.74.08-.73.08-.73 1.2.08 1.83 1.23 1.83 1.23 1.07 1.83 2.8 1.3 3.48.99.11-.77.42-1.3.76-1.6-2.66-.3-5.46-1.34-5.46-5.97 0-1.32.47-2.4 1.23-3.25-.12-.3-.53-1.51.12-3.15 0 0 1.01-.32 3.3 1.23a11.48 11.48 0 0 1 6 0c2.29-1.55 3.3-1.23 3.3-1.23.65 1.64.24 2.85.12 3.15.77.85 1.23 1.93 1.23 3.25 0 4.64-2.8 5.66-5.47 5.96.43.37.81 1.1.81 2.22v3.29c0 .32.21.7.82.58C20.56 21.8 24 17.3 24 12c0-6.63-5.37-12-12-12z"/>
</svg>
